<?xml version="1.0" standalone="no"?>
<!DOCTYPE svg PUBLIC "-//W3C//DTD SVG 20010904//EN"
 "http://www.w3.org/TR/2001/REC-SVG-20010904/DTD/svg10.dtd">
<svg version="1.0" xmlns="http://www.w3.org/2000/svg"
 width="744.000000pt" height="744.000000pt" viewBox="0 0 744.000000 744.000000"
 preserveAspectRatio="xMidYMid meet">
<metadata>
Created by potrace 1.11, written by Peter Selinger 2001-2013
</metadata>
<g transform="translate(0.000000,744.000000) scale(0.100000,-0.100000)"
fill="#000000" stroke="none">
<path d="M3184 7032 c3 -5 -5 -9 -19 -9 -14 0 -42 -16 -65 -37 -22 -20 -38
-36 -35 -36 3 0 -3 -8 -12 -18 -10 -11 -21 -17 -25 -15 -4 2 -9 -5 -12 -14 -3
-10 -19 -27 -36 -38 -17 -11 -33 -28 -36 -38 -3 -10 -8 -16 -11 -14 -6 7 -73
-68 -73 -82 0 -6 -5 -11 -11 -11 -8 0 -8 -5 1 -15 10 -12 10 -15 -1 -15 -12 0
-12 -2 0 -9 11 -7 11 -9 0 -14 -9 -4 -10 -6 -2 -6 7 -1 10 -8 7 -16 -4 -8 -1
-15 4 -15 6 0 14 -9 17 -20 3 -11 11 -20 17 -20 9 0 79 -73 106 -112 7 -10 18
-15 24 -12 7 4 8 2 4 -4 -4 -7 -2 -12 4 -12 6 0 8 -4 5 -10 -3 -5 -1 -10 6
-10 7 0 9 -3 6 -6 -3 -4 -2 -15 4 -25 7 -14 6 -19 -3 -19 -10 0 -10 -2 -1 -8
10 -6 4 -18 -21 -45 -18 -20 -30 -39 -27 -43 3 -4 -4 -4 -16 -1 -13 3 -23 2
-23 -3 0 -4 -7 -10 -14 -13 -11 -4 -13 -1 -9 10 5 12 3 14 -8 7 -8 -5 -18 -9
-24 -9 -13 -2 -59 21 -77 37 -19 18 -48 36 -78 49 -32 14 -120 20 -120 8 0 -5
-3 -8 -7 -7 -16 4 -59 -15 -86 -38 -16 -13 -37 -24 -48 -24 -10 0 -19 -4 -19
-9 0 -12 -71 -6 -98 8 -22 12 -59 71 -45 71 5 0 1 5 -7 10 -11 7 -12 12 -3 21
6 6 9 18 6 25 -3 8 0 14 6 14 6 0 11 6 11 14 0 7 7 19 15 26 8 7 13 16 10 20
-3 4 2 11 11 14 9 4 14 9 11 12 -3 3 2 14 11 24 33 36 43 50 35 50 -4 0 -2 5
5 12 14 14 16 67 3 102 -6 13 -26 35 -45 49 -20 13 -33 27 -28 32 4 5 2 5 -4
2 -10 -6 -22 1 -71 43 -7 6 -28 20 -48 31 -19 12 -35 25 -35 30 0 5 -6 8 -12
6 -7 -1 -12 4 -10 11 1 8 -2 11 -8 7 -5 -3 -13 0 -16 9 -3 8 -11 13 -19 10 -7
-3 -15 2 -18 10 -4 9 -13 16 -22 16 -8 0 -15 5 -15 10 0 6 -9 10 -19 10 -11 0
-22 6 -24 13 -4 9 -6 9 -6 -1 -1 -8 -6 -10 -13 -6 -38 24 -88 -6 -94 -54 -2
-20 1 -32 8 -32 6 0 9 -3 5 -6 -3 -4 0 -19 9 -35 8 -16 12 -29 8 -29 -3 0 1
-11 10 -25 9 -13 17 -36 18 -49 1 -14 6 -22 10 -20 4 3 8 -9 8 -25 0 -17 4
-31 10 -31 5 0 9 -3 8 -7 -1 -5 4 -24 11 -43 8 -19 13 -41 12 -47 -1 -7 2 -13
6 -13 5 0 10 -8 11 -17 3 -36 8 -59 15 -69 11 -19 28 -98 30 -141 1 -24 4 -43
7 -43 3 0 7 -15 8 -32 1 -18 3 -56 5 -85 1 -28 6 -55 10 -59 4 -4 1 -14 -6
-22 -9 -12 -9 -16 1 -19 6 -3 12 -9 12 -14 0 -6 -6 -7 -12 -3 -10 6 -10 4 -2
-7 6 -8 12 -54 13 -104 2 -54 7 -93 14 -97 7 -5 8 -8 2 -8 -6 0 -11 -9 -11
-20 0 -11 5 -20 11 -20 5 0 3 -5 -5 -10 -13 -9 -13 -10 0 -10 12 0 12 -2 2 -9
-25 -15 13 -21 42 -6 15 8 24 10 21 5 -4 -6 -1 -10 4 -10 6 0 11 4 11 8 0 5
10 8 23 7 12 -1 36 2 52 7 27 7 106 18 163 22 12 0 22 3 22 6 0 5 13 6 98 12
23 1 42 6 42 10 0 5 9 4 20 -2 11 -6 20 -7 20 -2 0 4 15 8 33 7 17 -1 40 3 50
8 11 5 23 4 31 -2 9 -7 16 -7 23 0 6 6 45 12 86 14 41 1 80 6 86 9 7 4 18 2
26 -4 9 -8 15 -8 15 -2 0 6 24 10 60 9 33 -1 60 1 60 4 0 4 28 7 63 7 223 4
375 10 385 16 6 3 13 2 17 -4 4 -6 10 -8 15 -5 18 11 90 13 83 3 -3 -6 -1 -8
4 -5 20 12 387 5 417 -8 12 -5 17 -5 13 2 -3 5 0 10 8 10 8 0 12 -4 10 -7 -3
-4 6 -7 20 -7 14 0 23 3 20 7 -2 3 2 7 10 7 8 0 12 -4 10 -8 -3 -4 5 -7 18 -7
71 0 153 -6 161 -10 16 -9 57 -8 63 1 2 4 10 4 16 -1 7 -5 30 -10 52 -11 22 0
52 -1 68 -2 18 0 25 -4 20 -12 -5 -8 -2 -8 9 0 8 7 18 10 21 7 6 -6 78 -14
164 -18 18 0 33 -4 33 -8 0 -3 14 -5 31 -4 16 1 32 0 34 -4 2 -3 23 -5 47 -5
24 0 45 -3 48 -7 3 -4 27 -8 53 -9 26 -2 47 -6 47 -11 0 -5 13 -6 29 -3 17 3
32 1 35 -4 3 -5 24 -9 47 -9 40 -1 41 0 37 29 -3 16 -1 29 3 29 4 0 5 10 1 22
-4 16 -2 19 9 13 12 -7 12 -6 1 7 -9 11 -10 18 -2 23 6 3 7 12 3 18 -13 20
-14 49 -2 41 8 -4 8 0 0 15 -7 11 -8 21 -4 21 5 0 8 29 7 65 0 36 2 65 5 65 6
0 7 12 10 128 1 36 5 51 12 46 7 -4 7 1 -1 15 -7 14 -8 27 -2 34 5 7 9 26 8
43 0 18 3 30 9 27 6 -2 10 9 9 24 -1 16 4 34 10 42 6 8 10 16 9 18 -2 1 -3 4
-2 6 4 12 10 44 11 55 1 6 4 12 8 12 4 0 7 7 8 15 1 8 3 22 4 30 1 8 5 15 10
15 5 0 7 4 4 8 -3 5 1 20 9 35 7 14 11 28 7 31 -3 3 1 6 8 6 7 0 10 3 7 7 -4
3 -1 13 6 21 9 13 9 14 -1 8 -6 -4 -3 9 9 28 12 20 18 36 15 36 -4 0 0 13 8
29 9 16 12 31 9 35 -4 3 -1 6 6 6 7 0 11 7 8 15 -4 8 -2 17 3 20 23 14 -9 72
-42 76 -28 3 -56 0 -78 -8 -14 -6 -29 -8 -34 -5 -5 3 -6 0 -2 -6 4 -7 1 -12
-8 -12 -9 0 -16 -5 -16 -11 0 -5 -4 -7 -10 -4 -5 3 -10 1 -10 -4 0 -6 -7 -11
-16 -11 -8 0 -12 -4 -9 -10 3 -5 -6 -12 -20 -16 -14 -3 -25 -10 -25 -15 0 -5
-12 -15 -27 -22 -16 -6 -34 -20 -41 -29 -7 -10 -20 -18 -28 -18 -8 0 -14 -3
-14 -8 0 -4 -18 -18 -40 -32 -22 -14 -40 -29 -40 -34 0 -5 -3 -6 -7 -3 -3 4
-16 -8 -28 -26 -16 -22 -19 -34 -11 -39 8 -6 8 -8 0 -8 -22 0 8 -95 38 -121
10 -9 15 -19 11 -23 -3 -3 -1 -6 6 -6 7 0 9 -4 6 -10 -3 -5 1 -10 9 -10 9 0
16 -9 16 -20 0 -11 7 -23 15 -26 8 -4 13 -10 10 -14 -3 -5 -1 -11 5 -15 14 -8
13 -85 -1 -85 -6 0 -8 -7 -5 -16 3 -8 2 -12 -4 -9 -6 3 -10 1 -10 -5 0 -22
-68 -41 -107 -31 -20 6 -40 8 -45 5 -4 -3 -8 2 -8 11 0 9 -4 13 -10 10 -5 -3
-10 -1 -10 6 0 7 -3 9 -7 6 -3 -4 -17 3 -31 15 -13 13 -25 22 -28 21 -9 -6
-25 -2 -21 5 3 4 -19 8 -49 8 -30 1 -54 -1 -54 -5 0 -4 -20 -13 -44 -20 -25
-7 -47 -19 -50 -27 -7 -19 -74 -47 -116 -49 -58 -2 -118 45 -111 88 0 4 -3 7
-7 7 -4 0 -8 9 -9 20 -1 11 3 20 8 20 6 0 7 4 4 10 -3 5 31 47 75 92 45 46 90
94 99 108 18 26 26 110 11 110 -6 0 -10 5 -10 11 0 14 -217 229 -231 229 -7 0
-10 3 -6 6 8 8 -25 44 -35 38 -4 -3 -8 0 -8 7 0 6 -8 9 -20 6 -11 -3 -20 0
-20 6 0 9 -2 9 -8 1 -4 -6 -15 -10 -25 -8 -9 1 -24 -4 -32 -13 -8 -8 -15 -12
-15 -9 0 3 -13 -7 -29 -22 -15 -15 -27 -29 -25 -31 2 -2 -11 -15 -29 -28 -17
-13 -30 -25 -27 -26 2 -1 -7 -14 -20 -28 -14 -14 -28 -24 -31 -22 -4 1 -17
-13 -30 -31 -13 -19 -26 -33 -30 -31 -8 6 -47 -65 -53 -97 -2 -15 0 -28 5 -30
6 -2 11 -13 12 -25 0 -12 5 -19 9 -17 4 3 8 -2 8 -10 0 -9 6 -16 14 -16 8 0
17 -9 21 -19 3 -11 15 -23 26 -26 10 -4 19 -11 19 -16 0 -6 7 -17 15 -25 8 -9
15 -13 15 -9 0 12 45 -49 58 -77 6 -15 7 -30 3 -33 -5 -3 -7 -15 -3 -27 3 -14
1 -19 -6 -14 -8 4 -10 2 -6 -8 3 -9 -3 -19 -18 -27 -13 -6 -25 -15 -28 -19 -3
-4 -24 -11 -47 -17 -31 -8 -42 -8 -40 1 1 6 -4 10 -11 8 -15 -3 -92 45 -92 58
0 5 -7 7 -15 4 -8 -4 -15 -1 -15 6 0 6 -4 9 -9 6 -5 -4 -11 -2 -13 3 -4 13
-106 22 -113 10 -4 -5 -10 -7 -15 -4 -5 3 -15 -1 -23 -9 -8 -8 -17 -13 -19
-11 -3 3 -15 -6 -28 -20 -13 -14 -32 -25 -42 -25 -11 0 -17 -4 -13 -9 3 -6 -4
-8 -15 -6 -11 2 -20 0 -20 -4 0 -4 -14 -8 -30 -9 -17 0 -28 3 -26 7 3 4 -5 7
-17 6 -38 -3 -86 65 -77 110 1 5 2 18 3 28 1 9 42 59 92 110 87 89 128 158
104 173 -5 3 -7 9 -4 14 3 4 -2 13 -10 20 -8 7 -12 16 -9 21 3 5 1 9 -5 9 -6
0 -46 36 -90 80 -44 44 -78 80 -75 80 2 0 -12 15 -33 33 -21 17 -44 38 -51 45
-7 6 -18 12 -23 12 -17 0 -24 2 -43 12 -11 6 -16 6 -12 0z"/>
<path d="M1935 5699 c-4 -10 -11 -19 -16 -19 -5 0 -32 -22 -59 -49 -28 -28
-53 -50 -55 -50 -3 -1 -5 -4 -4 -7 0 -4 -12 -15 -28 -25 -15 -10 -24 -19 -20
-19 8 0 -41 -56 -100 -115 -13 -12 -23 -26 -23 -31 0 -5 -9 -16 -20 -24 -11
-8 -20 -20 -20 -27 0 -7 -7 -13 -15 -13 -8 0 -12 -6 -10 -13 3 -6 -6 -21 -20
-31 -14 -10 -25 -25 -25 -32 0 -8 -4 -14 -10 -14 -5 0 -10 -7 -10 -15 0 -8 -5
-15 -10 -15 -6 0 -9 -3 -8 -8 2 -4 -3 -14 -10 -22 -32 -36 -78 -117 -74 -129
3 -8 0 -11 -6 -7 -7 4 -14 -4 -18 -19 -3 -14 -10 -25 -15 -25 -5 0 -9 -6 -9
-13 0 -7 -11 -29 -25 -49 -14 -20 -25 -44 -25 -53 0 -9 -4 -14 -9 -10 -6 3 -8
-4 -6 -15 2 -11 -1 -20 -6 -20 -6 0 -7 -5 -4 -10 3 -6 0 -13 -9 -16 -8 -3 -12
-12 -9 -20 3 -8 0 -14 -6 -14 -6 0 -11 -12 -11 -26 0 -14 -4 -23 -9 -20 -5 3
-11 -3 -14 -14 -3 -13 -1 -18 6 -13 7 3 1 -6 -13 -22 -14 -16 -18 -24 -10 -20
13 8 13 7 1 -8 -7 -9 -10 -17 -5 -17 5 0 3 -4 -4 -8 -13 -9 -23 -41 -26 -79 0
-11 -3 -20 -6 -18 -3 2 -14 -26 -26 -60 -11 -35 -16 -61 -10 -58 6 4 5 -1 -2
-10 -8 -9 -10 -22 -6 -28 4 -8 3 -9 -4 -5 -11 6 -18 -19 -13 -46 0 -5 -2 -8
-7 -8 -4 0 -8 -12 -9 -27 -2 -33 -6 -54 -14 -68 -4 -5 -5 -18 -4 -27 2 -10 0
-18 -3 -18 -4 0 -8 -17 -10 -38 -3 -50 -6 -65 -16 -81 -7 -10 -6 -12 4 -6 9 6
11 4 4 -6 -14 -24 -17 -83 -16 -379 1 -298 3 -350 12 -350 5 0 7 -20 13 -112
1 -10 4 -18 8 -18 4 0 6 -13 5 -30 -1 -16 3 -30 8 -30 6 0 5 -4 -3 -9 -11 -7
-11 -9 0 -13 12 -4 19 -33 21 -85 0 -13 4 -23 9 -23 5 0 9 -13 9 -30 0 -16 5
-30 12 -30 6 0 9 -3 5 -6 -3 -3 1 -23 8 -44 7 -21 11 -41 8 -44 -4 -3 -1 -6 5
-6 7 0 11 -3 11 -7 -1 -5 0 -11 1 -15 1 -5 4 -12 5 -18 1 -5 3 -11 4 -12 2 -2
5 -14 7 -28 3 -14 9 -26 14 -28 5 -2 6 -10 3 -18 -3 -8 0 -14 6 -14 6 0 11 -9
11 -19 0 -11 5 -23 10 -26 6 -4 8 -11 5 -16 -4 -5 -1 -9 6 -9 7 0 9 -3 6 -7
-4 -3 1 -15 10 -26 10 -11 12 -17 6 -13 -9 5 -11 2 -7 -8 3 -9 10 -16 15 -16
5 0 9 -9 9 -21 0 -11 4 -18 9 -15 5 3 9 0 8 -7 -1 -32 4 -48 13 -42 6 3 10 -3
10 -14 0 -12 4 -21 9 -21 8 0 17 -20 26 -57 2 -7 10 -20 19 -29 9 -8 16 -21
16 -27 0 -7 9 -20 20 -30 12 -10 18 -22 15 -27 -3 -6 -1 -10 4 -10 6 0 11 -7
11 -15 0 -8 5 -15 10 -15 6 0 10 -7 10 -15 0 -8 4 -15 9 -15 5 0 14 -13 21
-30 7 -16 16 -30 21 -30 5 0 9 -6 9 -14 0 -8 7 -17 16 -20 9 -4 14 -9 11 -12
-3 -3 5 -17 19 -31 13 -13 21 -29 18 -35 -4 -7 -2 -8 4 -4 8 4 16 -3 22 -19 5
-14 14 -23 20 -20 5 3 10 -1 10 -9 0 -9 5 -16 12 -16 6 0 9 -3 5 -6 -3 -3 10
-21 29 -39 19 -18 34 -39 34 -46 0 -7 3 -10 6 -7 3 4 22 -12 42 -35 20 -23 40
-44 45 -45 4 -2 4 -9 1 -14 -4 -6 -2 -8 3 -5 11 7 63 -39 63 -56 0 -6 3 -8 6
-5 3 3 20 -9 38 -28 18 -19 38 -34 45 -34 6 0 11 -7 11 -16 0 -8 4 -13 8 -10
5 3 15 -4 22 -15 8 -10 19 -19 25 -19 6 0 18 -8 27 -17 20 -23 51 -47 111 -85
26 -17 47 -35 47 -40 0 -5 4 -7 9 -4 5 3 19 -4 33 -17 13 -12 27 -22 30 -22 4
0 17 -8 28 -17 11 -10 24 -18 30 -18 12 0 84 -42 88 -52 2 -5 8 -6 13 -2 5 3
9 0 9 -6 0 -6 5 -8 10 -5 6 3 10 2 10 -3 0 -9 37 -25 53 -23 4 1 7 -4 7 -10 0
-5 5 -7 10 -4 6 3 10 1 10 -4 0 -6 9 -11 20 -11 11 0 20 -5 20 -12 0 -6 3 -8
6 -5 4 4 19 0 33 -7 33 -18 64 -30 74 -28 4 1 7 -3 7 -10 0 -6 3 -8 7 -5 3 4
12 2 20 -4 7 -7 21 -13 31 -14 9 -1 24 -4 32 -7 8 -3 24 -10 35 -14 11 -4 28
-8 37 -9 34 -4 47 -24 38 -56 -5 -16 -9 -33 -10 -37 0 -4 -3 -16 -5 -27 -3
-11 -7 -31 -9 -45 -3 -14 -5 -25 -6 -25 -1 0 -3 -17 -5 -38 -2 -21 -8 -44 -14
-51 -9 -11 -9 -16 0 -22 8 -5 9 -3 4 6 -5 9 -4 11 4 6 9 -6 9 -11 -1 -23 -7
-9 -14 -28 -14 -42 -1 -14 -5 -35 -9 -45 -7 -15 -5 -17 6 -11 11 7 12 6 3 -6
-11 -15 -16 -48 -18 -116 -1 -24 -4 -43 -7 -43 -3 0 -4 -24 -4 -52 1 -29 0
-57 -4 -63 -8 -14 -9 -55 -2 -56 3 -1 384 -3 846 -3 l841 -2 -2 35 c-1 20 -2
36 -3 36 -2 0 -4 12 -6 28 -2 18 0 25 7 21 7 -5 8 -2 3 7 -11 17 -15 43 -15
96 0 23 -5 45 -10 48 -8 5 -7 11 1 21 6 8 7 14 2 14 -6 0 -9 12 -9 27 1 16 -4
39 -12 52 -10 17 -11 21 -2 16 10 -6 11 -1 5 21 -4 16 -7 37 -7 47 0 9 -5 17
-11 17 -7 0 -6 4 3 10 11 7 12 10 2 10 -10 0 -12 10 -9 35 3 20 0 35 -5 35 -6
0 -8 7 -4 15 3 8 1 15 -3 15 -5 0 -7 9 -4 20 3 11 1 20 -3 20 -5 0 -9 15 -10
34 0 28 3 34 18 31 10 -2 18 0 18 4 0 4 6 8 13 9 41 5 76 15 73 21 -3 4 7 7
22 6 15 0 30 4 34 10 4 5 11 10 15 10 16 1 89 28 101 38 7 5 15 7 18 4 4 -3
13 1 21 9 8 8 19 12 24 9 5 -4 9 -1 9 6 0 7 3 9 6 6 4 -3 16 -1 28 5 11 7 23
13 26 13 10 2 125 60 130 66 3 3 26 16 53 29 26 13 47 28 47 32 0 5 5 6 10 3
6 -3 10 -2 10 3 0 6 11 13 25 16 14 4 25 11 25 17 0 6 5 7 10 4 6 -3 10 -2 10
3 0 5 16 17 35 28 19 10 35 22 35 26 0 5 5 8 11 8 6 0 17 6 24 12 33 30 45 38
54 38 6 0 16 9 23 20 7 11 18 20 25 20 7 0 13 5 13 10 0 6 6 10 14 10 8 0 18
9 21 20 4 11 10 18 15 15 5 -3 16 5 24 17 9 12 16 19 16 15 0 -4 17 10 38 33
22 22 42 40 45 40 3 0 30 25 61 55 30 30 53 55 50 55 -3 0 14 19 38 42 24 23
42 46 41 50 -2 4 1 8 6 8 5 0 22 18 39 40 16 22 31 37 34 34 3 -3 9 7 12 21 4
14 10 24 15 21 4 -3 15 10 24 29 9 19 22 35 27 35 6 0 9 4 6 9 -4 5 -2 11 3
13 15 5 145 216 184 298 6 14 14 27 17 30 10 10 49 95 55 123 4 15 11 27 17
27 5 0 6 5 3 10 -3 6 -2 10 2 10 5 0 9 10 10 22 1 11 7 24 13 28 6 4 12 17 13
28 1 12 5 22 9 22 4 0 5 7 2 15 -4 8 -1 15 6 15 7 0 10 7 6 15 -3 8 -1 15 5
15 6 0 8 4 4 9 -3 5 -1 12 4 15 8 6 26 73 23 89 -1 4 2 7 8 7 5 0 7 6 4 14 -3
7 2 20 10 29 8 8 12 17 9 20 -3 4 -2 14 2 24 4 10 9 25 10 33 6 38 17 88 26
122 5 20 9 40 8 45 -4 22 2 34 14 27 9 -5 9 -4 0 6 -7 8 -8 22 -3 41 5 16 6
29 2 29 -3 0 -1 5 6 12 15 15 16 32 1 22 -8 -4 -8 -1 -1 12 5 11 10 39 11 64
2 57 4 72 15 89 6 10 5 12 -2 7 -15 -9 -15 -1 -1 26 8 15 8 19 0 14 -7 -5 -10
1 -7 16 3 13 5 23 6 23 2 0 3 44 4 98 1 53 -2 97 -6 97 -11 0 -5 23 7 32 6 5
6 8 -1 8 -6 0 -11 13 -11 30 0 18 4 27 11 23 7 -4 6 -1 -1 8 -6 8 -13 46 -16
85 -2 39 -6 75 -9 80 -2 5 -6 27 -7 48 -1 22 -5 44 -8 49 -4 6 -8 27 -9 46 -2
20 -8 49 -13 65 -6 15 -9 31 -6 36 3 5 1 11 -5 15 -6 4 -8 10 -5 15 3 5 1 18
-5 29 -5 11 -11 31 -12 45 -1 15 -6 26 -11 26 -4 0 -7 6 -6 13 3 15 -11 68
-21 82 -4 6 -6 18 -5 28 2 10 -3 17 -11 17 -9 0 -12 5 -8 11 3 6 2 21 -4 32
-16 34 -25 61 -24 70 1 4 -2 7 -7 7 -5 0 -8 11 -7 25 2 13 -1 22 -5 19 -8 -5
-13 10 -10 29 0 4 -3 7 -8 7 -8 0 -24 37 -22 53 1 4 -4 7 -10 7 -6 0 -9 7 -5
15 3 8 1 15 -3 15 -5 0 -14 14 -20 30 -5 17 -15 30 -21 30 -6 0 -8 5 -5 10 4
6 2 16 -3 23 -5 7 -26 44 -47 82 -21 39 -46 79 -56 91 -11 11 -19 26 -19 32 0
7 -4 12 -10 12 -5 0 -10 10 -10 22 0 12 -3 18 -7 15 -4 -4 -18 13 -33 38 -15
25 -29 42 -33 38 -4 -3 -7 -1 -7 6 0 18 -46 82 -53 74 -6 -5 -10 10 -6 20 1 3
-90 102 -163 177 -32 33 -58 64 -58 70 0 5 -6 9 -12 7 -7 -1 -12 4 -10 11 1 8
-1 11 -6 8 -4 -3 -21 8 -36 25 -34 35 -37 36 -64 4 -12 -14 -27 -25 -34 -25
-6 0 -9 -3 -5 -6 8 -8 -18 -34 -34 -34 -7 0 -10 -3 -6 -6 7 -8 -17 -34 -32
-34 -6 0 -10 -4 -8 -8 1 -4 -10 -20 -25 -35 l-27 -27 82 -83 c45 -46 85 -82
90 -80 4 2 7 -2 7 -9 1 -7 14 -24 30 -38 17 -13 30 -30 30 -37 0 -7 7 -13 16
-13 8 0 13 -4 10 -8 -3 -5 4 -15 15 -22 10 -8 19 -19 19 -24 0 -5 12 -20 26
-33 14 -13 24 -27 21 -30 -3 -3 6 -16 20 -29 14 -13 23 -24 20 -24 -4 0 3 -11
14 -24 12 -13 20 -27 19 -31 -1 -4 8 -15 19 -24 12 -10 21 -23 21 -28 0 -6 7
-16 15 -23 9 -7 14 -19 11 -25 -2 -7 4 -18 15 -26 10 -7 19 -21 19 -31 0 -10
5 -18 11 -18 5 0 8 -4 5 -9 -4 -5 -3 -11 2 -13 10 -4 62 -107 62 -124 0 -8 5
-14 10 -14 6 0 10 -7 10 -15 0 -8 9 -30 19 -49 11 -19 17 -37 13 -41 -4 -4 2
-13 12 -21 14 -10 16 -14 5 -14 -9 0 -10 -3 -3 -8 11 -8 25 -38 29 -62 4 -27
10 -45 16 -50 4 -3 9 -16 10 -30 2 -14 7 -27 10 -30 4 -3 9 -21 12 -41 2 -20
7 -41 10 -46 4 -5 9 -23 11 -39 3 -16 8 -40 12 -54 3 -14 6 -32 6 -40 0 -8 6
-21 12 -29 9 -12 8 -13 -4 -6 -12 7 -13 6 -3 -7 7 -8 10 -18 6 -21 -3 -4 -2
-7 3 -7 6 0 8 -17 6 -37 -3 -30 -1 -35 8 -23 10 12 11 12 5 -5 -8 -22 -8 -25
0 -75 3 -19 7 -66 8 -105 1 -38 4 -74 7 -80 3 -5 4 -39 2 -75 -2 -36 -4 -91
-5 -122 -1 -32 -4 -58 -7 -58 -4 0 -5 -16 -3 -36 1 -21 0 -41 -4 -47 -3 -5 -7
-32 -9 -58 -2 -27 -9 -59 -15 -70 -9 -17 -8 -20 2 -14 8 6 10 4 5 -4 -5 -7
-10 -27 -12 -44 -3 -18 -8 -39 -11 -47 -7 -18 -13 -48 -15 -77 -1 -13 -5 -23
-8 -23 -3 0 -7 -12 -8 -27 -1 -15 -7 -30 -13 -34 -8 -4 -7 -8 2 -12 10 -4 10
-6 2 -6 -7 -1 -13 -10 -13 -21 0 -11 -5 -20 -11 -20 -5 0 -8 -4 -5 -9 3 -5 -1
-25 -9 -45 -8 -20 -16 -39 -16 -43 -1 -8 -15 -48 -26 -73 -3 -8 -5 -18 -5 -22
1 -5 -3 -8 -8 -8 -5 0 -9 -3 -8 -7 4 -16 -39 -86 -46 -74 -4 6 -16 11 -27 11
-10 0 -19 5 -19 10 0 6 -9 10 -20 10 -11 0 -20 5 -20 11 0 5 -4 7 -10 4 -5 -3
-10 -1 -10 4 0 6 -3 10 -7 9 -13 -2 -43 14 -39 21 3 4 -5 8 -17 8 -12 1 -27
10 -34 19 -7 10 -13 15 -13 11 0 -11 -44 14 -53 30 -5 7 -13 11 -18 7 -6 -3
-19 4 -30 17 -10 12 -19 18 -19 13 0 -5 -4 -4 -8 2 -4 6 -25 21 -47 33 -22 11
-35 21 -30 21 5 0 -14 16 -43 35 -28 20 -52 40 -52 46 0 6 -4 8 -9 5 -12 -8
-33 19 -23 29 4 5 1 5 -6 1 -7 -5 -31 12 -62 43 -28 28 -54 51 -58 51 -4 0
-13 9 -20 20 -7 12 -17 18 -23 15 -5 -4 -8 -2 -7 3 2 5 -8 19 -21 31 -13 12
-21 21 -18 21 3 0 -4 11 -17 25 -13 14 -29 25 -35 25 -7 0 -9 5 -6 10 3 6 2
10 -4 10 -5 0 -13 9 -16 20 -3 11 -13 20 -20 20 -8 0 -17 11 -21 25 -3 14 -10
22 -15 19 -5 -3 -9 -1 -9 4 0 5 -9 20 -20 33 -11 13 -23 29 -28 34 -26 31 -41
63 -35 70 5 4 2 5 -5 1 -7 -4 -15 0 -19 11 -4 10 -17 32 -30 49 -13 17 -23 36
-23 42 0 7 -4 12 -9 12 -10 0 -27 39 -23 53 1 4 -5 7 -13 7 -8 0 -15 6 -15 13
0 18 -24 67 -32 67 -5 0 -8 7 -8 15 0 8 -5 15 -11 15 -5 0 -7 5 -4 11 4 5 -1
19 -12 31 -10 11 -17 22 -15 24 1 2 -5 21 -14 42 -10 20 -18 39 -19 42 -1 3
-7 18 -13 33 -7 16 -9 33 -6 39 4 7 2 8 -4 4 -7 -4 -12 -4 -13 1 -1 17 -8 39
-23 81 -8 23 -12 42 -8 42 4 0 2 4 -5 8 -11 7 -23 45 -25 80 -1 6 -4 12 -8 12
-4 0 -6 10 -6 23 1 12 -2 27 -7 34 -5 7 -10 30 -10 52 -1 21 -5 37 -9 34 -7
-4 -13 29 -9 51 1 4 -4 15 -11 24 -11 13 -11 14 2 7 12 -7 13 -6 4 6 -6 8 -12
21 -12 29 0 8 -4 40 -7 70 -4 30 -8 71 -9 90 0 19 -5 38 -11 42 -6 5 -5 8 3 8
7 0 11 4 7 9 -10 17 -14 211 -6 256 6 30 5 46 -3 49 -7 3 -6 5 2 5 9 1 10 6 2
20 -7 14 -7 22 1 26 6 4 8 22 6 41 -3 19 -1 37 4 40 5 3 7 16 5 30 -3 13 -1
24 3 24 5 0 7 14 5 30 -2 19 1 30 8 30 30 0 -21 29 -54 32 -21 1 -38 7 -38 13
0 5 -5 3 -10 -5 -6 -10 -10 -11 -10 -2 0 7 -13 12 -30 12 -17 0 -30 5 -30 13
0 8 -3 8 -8 2 -6 -10 -20 -11 -39 -5 -5 1 -12 2 -17 1 -4 -1 -13 3 -20 8 -7 6
-16 4 -24 -5 -10 -11 -10 -14 0 -14 10 0 10 -2 1 -8 -7 -4 -13 -28 -15 -52 -2
-25 -6 -49 -9 -55 -3 -5 -5 -38 -4 -72 0 -33 -3 -59 -7 -56 -11 6 -10 -5 3
-29 8 -15 8 -19 0 -13 -8 5 -10 -1 -5 -19 3 -13 2 -31 -2 -38 -4 -7 -7 -28 -6
-48 3 -41 3 -40 0 -105 -2 -34 2 -54 12 -63 8 -8 9 -11 2 -7 -9 5 -11 -3 -6
-32 3 -21 8 -42 12 -47 3 -5 0 -6 -6 -2 -7 4 -10 -1 -9 -14 1 -11 4 -20 7 -20
4 0 6 -22 5 -50 -1 -27 1 -47 5 -45 4 2 7 -19 8 -47 0 -28 6 -54 13 -58 8 -6
8 -9 0 -14 -6 -4 -8 -12 -5 -18 4 -6 8 -21 10 -32 4 -22 11 -58 14 -66 1 -3 2
-9 1 -14 -1 -4 4 -14 10 -22 9 -11 8 -14 -2 -14 -9 0 -10 -3 -3 -8 6 -4 10
-17 9 -30 -1 -12 4 -27 11 -33 7 -6 10 -17 7 -25 -3 -8 -1 -14 4 -14 5 0 9 -8
10 -17 1 -18 10 -58 13 -58 1 0 4 -11 6 -25 2 -13 8 -27 12 -30 7 -5 9 -12 15
-48 2 -9 8 -27 15 -38 6 -12 8 -24 5 -28 -3 -3 -1 -6 5 -6 7 0 12 -7 12 -15 0
-9 7 -30 16 -46 8 -17 17 -41 20 -52 2 -12 8 -23 14 -25 5 -2 10 -11 10 -20 0
-9 7 -26 15 -36 8 -10 12 -23 9 -27 -3 -5 0 -9 6 -9 6 0 8 -5 5 -10 -3 -6 1
-13 9 -16 9 -3 14 -10 11 -14 -3 -5 7 -23 22 -41 16 -18 22 -29 15 -25 -11 7
-11 4 0 -13 7 -12 16 -21 20 -21 5 0 8 -8 8 -18 0 -11 9 -27 20 -37 11 -10 20
-22 20 -27 0 -9 97 -154 118 -176 7 -8 9 -19 5 -25 -3 -7 -3 -9 2 -5 7 7 35
-14 35 -26 0 -7 43 -58 83 -98 15 -15 24 -28 20 -28 -4 0 16 -22 45 -50 28
-27 52 -51 52 -54 0 -10 34 -46 43 -46 4 0 30 -24 57 -52 28 -29 50 -50 50
-45 0 4 18 -11 39 -32 22 -22 42 -37 45 -34 3 4 6 1 6 -6 0 -7 5 -9 10 -6 6 3
10 1 10 -5 0 -15 26 -41 34 -33 3 4 6 1 6 -5 0 -7 7 -12 15 -12 9 0 18 -7 21
-15 4 -8 12 -15 18 -15 7 0 23 -11 36 -25 13 -14 25 -23 28 -21 2 3 13 -4 25
-15 11 -10 27 -19 34 -19 7 0 13 -5 13 -11 0 -5 4 -8 9 -4 6 3 15 -3 21 -14 6
-12 16 -18 25 -15 8 4 15 1 15 -5 0 -6 7 -11 16 -11 9 0 12 -5 8 -12 -5 -7 -2
-9 8 -5 9 3 25 -3 37 -14 12 -11 21 -17 21 -13 0 3 7 0 16 -7 9 -7 23 -14 31
-15 8 -2 23 -10 34 -20 10 -9 19 -14 19 -9 0 4 7 1 16 -6 9 -7 23 -14 31 -15
8 -2 17 -5 19 -7 7 -7 -18 -57 -28 -57 -4 0 -8 -7 -8 -15 0 -9 -7 -18 -15 -21
-8 -4 -13 -9 -11 -13 3 -4 -8 -22 -24 -40 -16 -18 -32 -41 -35 -52 -4 -11 -11
-17 -16 -14 -5 4 -9 2 -9 -3 0 -5 -11 -21 -25 -36 -13 -14 -21 -26 -17 -26 3
0 -11 -16 -31 -35 -20 -19 -35 -35 -32 -35 3 0 -18 -24 -47 -52 -29 -29 -56
-52 -60 -50 -5 1 -8 -3 -8 -9 0 -15 -26 -39 -34 -32 -3 4 -6 1 -6 -6 0 -7 -7
-19 -15 -27 -8 -9 -15 -13 -15 -9 0 3 -13 -7 -29 -22 -52 -50 -91 -83 -91 -76
0 4 -7 -3 -16 -15 -8 -12 -19 -20 -24 -17 -4 3 -10 2 -12 -3 -5 -12 -85 -72
-95 -72 -6 0 -18 -9 -28 -20 -10 -11 -22 -17 -26 -14 -5 3 -9 2 -9 -3 0 -8
-53 -41 -68 -43 -4 -1 -18 -11 -31 -23 -13 -12 -20 -15 -16 -7 6 11 3 10 -12
-3 -11 -9 -25 -17 -32 -17 -7 0 -10 -4 -6 -9 3 -6 -4 -8 -15 -6 -11 2 -20 1
-20 -3 0 -4 -9 -13 -21 -20 -17 -11 -20 -11 -13 0 4 7 -2 5 -13 -5 -11 -9 -27
-17 -37 -17 -9 0 -14 -4 -11 -10 5 -9 -15 -15 -37 -11 -5 0 -8 -4 -8 -9 0 -5
-3 -9 -7 -8 -8 3 -51 -12 -111 -39 -18 -8 -45 -16 -60 -18 -15 -1 -26 -8 -25
-13 2 -6 -7 -9 -19 -7 -11 3 -26 1 -32 -3 -19 -11 -56 -13 -57 -2 -2 13 -4 21
-12 40 -21 56 -36 114 -30 123 3 6 1 7 -5 3 -8 -4 -12 0 -12 11 0 11 -5 24
-12 31 -7 7 -9 12 -5 12 4 0 -2 19 -14 42 -12 24 -21 43 -20 43 2 0 0 12 -4
27 -4 16 -10 28 -14 28 -4 0 -8 10 -8 22 -1 13 -7 24 -13 26 -5 2 -10 9 -10
16 0 7 -6 26 -14 42 -8 16 -22 47 -32 69 -10 22 -23 43 -28 47 -6 4 -8 8 -4 8
4 0 -8 29 -27 64 -18 35 -31 67 -28 70 4 3 2 6 -4 6 -5 0 -24 29 -42 65 -18
36 -37 68 -42 71 -5 3 -7 9 -5 13 3 4 -7 21 -22 38 -15 16 -28 37 -30 47 -2 9
-12 26 -23 37 -10 10 -19 25 -19 33 0 8 -3 16 -7 18 -12 5 -53 66 -53 78 0 5
-3 10 -8 10 -4 0 -16 16 -26 35 -11 19 -23 35 -28 35 -5 0 -4 8 1 19 6 10 8
21 5 24 -3 3 4 8 15 12 12 3 19 11 16 16 -4 5 1 12 9 15 9 3 13 10 10 15 -3 5
2 12 10 15 9 3 16 12 16 19 0 7 3 15 8 17 4 2 23 23 43 48 20 25 45 55 55 66
11 12 37 43 59 69 61 72 249 260 258 257 4 -1 7 4 7 12 0 7 8 20 17 27 11 10
14 10 9 2 -4 -7 -5 -13 -1 -13 3 0 9 10 14 22 6 17 3 29 -10 43 -59 66 -68 79
-62 89 3 6 3 8 -2 4 -4 -4 -14 -3 -21 3 -9 7 -21 2 -43 -20 -17 -17 -31 -28
-31 -26 0 5 -173 -170 -202 -204 -9 -10 -13 -22 -10 -26 4 -4 2 -5 -4 -3 -12
3 -54 -38 -54 -54 0 -4 -7 -8 -16 -8 -8 0 -13 -4 -10 -9 4 -5 3 -11 -2 -13 -4
-1 -33 -34 -65 -73 -83 -101 -89 -107 -98 -93 -4 7 -5 16 -2 22 3 5 1 6 -4 3
-6 -4 -18 4 -26 17 -9 13 -22 29 -29 37 -7 8 -42 49 -77 91 -36 43 -71 80 -79
83 -7 2 -10 9 -7 15 3 5 -2 10 -11 10 -10 0 -15 3 -11 6 7 7 -134 150 -145
146 -4 -1 -8 3 -8 8 0 14 -30 45 -58 59 -12 7 -20 16 -17 20 8 14 -35 21 -45
8 -5 -7 -21 -25 -35 -41 -14 -16 -25 -33 -25 -37 0 -5 -7 -9 -16 -9 -8 0 -12
-4 -9 -10 3 -5 0 -10 -7 -10 -9 0 -9 -3 2 -10 8 -5 12 -10 7 -10 -4 0 38 -44
92 -99 55 -54 97 -102 93 -106 -4 -4 -2 -5 3 -3 11 3 95 -77 95 -90 0 -4 11
-16 25 -26 13 -10 22 -22 20 -27 -3 -4 4 -10 15 -14 11 -3 20 -13 20 -21 0 -7
9 -19 20 -26 11 -7 20 -17 20 -22 0 -5 10 -17 22 -27 11 -11 17 -19 13 -19 -4
0 2 -8 13 -19 12 -10 19 -21 16 -24 -3 -3 4 -8 15 -12 12 -3 19 -10 16 -15 -3
-5 7 -23 23 -39 27 -29 38 -61 21 -61 -4 0 -11 -9 -14 -20 -3 -11 -12 -26 -19
-32 -6 -7 -23 -31 -36 -53 -13 -21 -32 -47 -42 -57 -11 -11 -16 -23 -13 -28 4
-6 2 -10 -3 -10 -5 0 -22 -24 -37 -52 -16 -29 -31 -55 -35 -58 -7 -6 -21 -39
-17 -43 1 -1 -4 -9 -11 -17 -13 -15 -55 -80 -57 -90 -6 -22 -26 -59 -35 -65
-5 -3 -8 -11 -5 -16 4 -5 1 -9 -5 -9 -6 0 -9 -4 -5 -9 3 -5 0 -15 -7 -23 -7
-7 -14 -20 -16 -28 -2 -7 -11 -20 -20 -28 -9 -7 -11 -11 -5 -7 14 6 -15 -55
-31 -66 -5 -4 -6 -14 -3 -22 3 -9 -1 -18 -8 -21 -9 -3 -12 -12 -8 -22 4 -12 3
-15 -5 -10 -8 5 -12 0 -12 -13 0 -11 -5 -23 -10 -26 -6 -4 -8 -10 -5 -15 3 -5
1 -11 -5 -15 -5 -3 -10 -15 -10 -26 0 -10 -4 -19 -10 -19 -5 0 -9 -3 -9 -7 3
-18 -14 -73 -23 -73 -5 0 -7 -4 -3 -9 3 -5 1 -12 -5 -16 -6 -4 -8 -11 -5 -16
4 -5 1 -9 -6 -9 -7 0 -9 -3 -6 -7 4 -3 1 -13 -6 -21 -10 -13 -9 -14 2 -8 9 6
8 1 -3 -16 -9 -14 -13 -28 -9 -31 3 -4 1 -7 -5 -7 -7 0 -12 -11 -12 -24 0 -14
-5 -28 -10 -31 -6 -4 -8 -11 -5 -16 4 -5 -1 -9 -9 -9 -9 0 -16 5 -16 12 0 6
-3 9 -6 6 -6 -6 -99 24 -111 35 -3 4 -15 7 -25 7 -10 0 -18 5 -18 11 0 5 -3 8
-8 5 -4 -2 -30 6 -57 20 -28 13 -56 24 -62 24 -7 0 -13 5 -13 12 0 6 -3 8 -7
5 -3 -4 -12 1 -20 11 -9 10 -11 11 -7 2 7 -12 5 -13 -8 -3 -8 7 -19 9 -23 5
-5 -4 -5 -1 -1 6 4 6 4 12 -1 13 -26 2 -47 9 -52 16 -3 4 -18 14 -33 22 -16 8
-28 18 -28 23 0 5 -4 7 -9 3 -5 -3 -17 2 -25 11 -9 8 -16 12 -16 7 0 -4 -5 0
-11 10 -5 9 -14 17 -20 17 -19 0 -109 67 -101 75 4 5 2 5 -4 2 -6 -4 -24 5
-38 18 -15 14 -29 25 -32 25 -2 0 -17 11 -32 24 -61 55 -75 66 -84 66 -4 0 -8
8 -8 17 0 9 -3 13 -7 10 -3 -4 -34 22 -68 58 -35 36 -69 65 -76 65 -7 0 -9 3
-6 7 4 3 -6 19 -22 34 -16 15 -27 30 -23 33 3 3 -3 6 -13 6 -10 0 -15 3 -12 6
3 4 -9 22 -28 41 -19 19 -32 39 -29 44 3 5 -2 9 -10 9 -8 0 -17 8 -20 18 -3 9
-18 31 -32 47 -14 17 -37 49 -51 72 -14 24 -29 43 -35 43 -5 0 -7 4 -4 9 4 5
0 12 -6 14 -8 3 -6 6 5 6 10 1 15 6 12 11 -3 6 3 10 14 10 11 0 23 5 26 10 4
6 11 8 16 5 5 -4 9 -1 9 4 0 6 7 11 15 11 8 0 15 5 15 12 0 6 3 8 6 5 4 -4 20
3 37 15 18 13 27 16 22 7 -5 -9 -1 -8 12 3 11 10 25 18 31 18 7 0 12 5 12 10
0 6 7 10 15 10 8 0 15 5 15 10 0 6 7 10 15 10 8 0 15 5 15 10 0 6 3 9 8 8 10
-4 72 35 72 45 0 4 5 5 10 2 6 -3 13 1 16 9 3 9 10 13 15 10 5 -3 9 0 9 5 0 6
7 11 15 11 8 0 15 5 15 10 0 6 7 10 15 10 8 0 15 4 15 10 0 5 12 16 28 24 15
8 41 29 59 45 18 17 37 31 42 31 6 0 16 9 23 20 7 11 16 20 20 20 3 0 27 21
52 46 25 25 46 43 46 39 0 -3 18 14 39 39 21 25 42 42 45 39 3 -4 6 -1 6 4 0
6 21 33 47 60 26 26 46 49 45 50 -1 2 9 15 23 30 13 16 35 41 49 57 14 16 26
35 26 43 0 8 4 12 9 8 5 -3 12 4 16 15 4 11 17 32 31 45 13 13 24 28 24 33 0
5 7 15 15 22 8 7 13 16 10 20 -3 4 2 10 10 14 8 3 15 12 15 21 0 8 4 15 9 15
5 0 12 8 15 18 13 35 37 72 48 72 5 0 8 6 5 14 -3 8 0 20 8 26 15 13 50 81 47
93 -1 4 3 7 9 7 5 0 8 4 4 9 -3 6 0 13 7 18 7 4 13 13 14 18 3 23 17 55 25 55
5 0 9 7 9 15 0 8 4 23 9 33 14 25 24 56 23 65 -1 4 3 7 9 7 5 0 8 4 5 9 -3 4
1 16 8 27 8 10 12 24 9 30 -2 7 1 15 6 19 6 3 9 11 6 16 -4 5 -1 9 5 9 6 0 8
5 5 10 -3 6 -2 10 4 10 5 0 8 9 6 20 -2 11 0 20 6 20 5 0 8 3 8 8 -4 23 2 52
10 48 4 -3 7 6 5 19 -1 14 1 25 5 25 7 0 11 15 12 52 0 10 4 20 10 23 5 4 9
21 9 39 0 18 3 36 7 40 4 3 7 14 8 24 6 60 18 118 26 128 7 8 6 14 -1 19 -7 4
-7 11 -2 18 5 7 8 26 7 44 0 17 3 29 7 27 4 -3 8 0 8 5 0 6 -6 11 -12 11 -8 0
-9 3 -3 8 10 7 12 25 14 120 1 37 4 51 13 46 7 -5 8 -3 2 7 -13 21 -14 39 -2
39 6 0 5 6 -2 15 -10 12 -10 15 1 15 9 0 10 3 3 8 -13 9 -14 42 -1 42 5 0 4 7
-3 15 -10 12 -10 15 1 15 9 0 10 3 3 8 -14 9 -14 42 0 42 6 0 5 5 -2 12 -16
16 -15 31 1 22 9 -6 9 -5 0 7 -6 8 -12 41 -14 74 -1 33 -7 63 -13 67 -7 5 -6
8 3 8 11 0 11 3 1 15 -10 12 -10 15 0 15 9 0 9 4 2 13 -6 7 -9 22 -8 32 2 11
-3 31 -11 44 -8 13 -10 20 -4 17 6 -4 11 0 11 8 0 9 -4 16 -9 16 -5 0 -7 10
-4 23 3 12 1 18 -4 12 -4 -6 -23 -11 -40 -10 -18 0 -33 -2 -33 -5 0 -3 -14 -6
-31 -7 -17 -1 -37 -8 -45 -14 -8 -6 -14 -7 -14 -2 0 5 -7 10 -15 10 -8 0 -15
-4 -15 -7 0 -4 -10 -8 -22 -8 -13 -1 -31 -3 -40 -5 -20 -4 -36 -17 -22 -17 5
0 11 -26 12 -57 1 -31 7 -60 13 -64 7 -4 8 -9 1 -13 -8 -5 -9 -41 -2 -41 5 0
10 -125 10 -230 1 -144 -4 -217 -14 -234 -7 -10 -5 -12 5 -6 12 8 12 6 0 -8
-11 -14 -11 -17 0 -17 9 0 10 -3 4 -8 -6 -4 -12 -25 -14 -47 -2 -22 -8 -43
-14 -47 -9 -6 -8 -8 1 -8 9 0 10 -5 4 -17 -5 -10 -8 -26 -7 -35 2 -10 -1 -18
-6 -18 -6 0 -8 -4 -5 -8 2 -4 -4 -43 -15 -87 -11 -44 -20 -87 -21 -95 0 -8 -5
-20 -9 -26 -5 -6 -10 -23 -11 -38 -1 -14 -6 -26 -10 -26 -4 0 -7 -3 -6 -7 3
-17 -15 -83 -23 -83 -5 0 -8 -3 -7 -7 0 -5 -2 -17 -6 -28 -5 -11 -10 -27 -14
-35 -3 -8 -4 -18 -4 -22 1 -5 -3 -8 -9 -8 -5 0 -8 -4 -4 -9 3 -5 1 -12 -5 -16
-6 -4 -8 -11 -5 -16 4 -5 1 -9 -4 -9 -6 0 -11 -5 -11 -12 0 -15 -52 -122 -62
-126 -5 -2 -6 -8 -2 -13 3 -5 0 -9 -6 -9 -6 0 -9 -4 -5 -9 3 -5 1 -12 -5 -16
-6 -4 -8 -11 -5 -16 4 -5 1 -9 -5 -9 -6 0 -14 -10 -19 -22 -5 -13 -25 -47 -45
-77 -20 -29 -36 -56 -36 -60 0 -3 -16 -26 -35 -51 -64 -82 -73 -95 -77 -105
-1 -5 -17 -24 -35 -42 -18 -17 -33 -34 -33 -38 0 -4 -12 -19 -27 -34 -16 -15
-54 -55 -85 -88 -32 -34 -58 -60 -58 -58 0 2 -22 -18 -50 -43 -63 -60 -102
-93 -130 -112 -13 -8 -33 -25 -45 -37 -13 -12 -26 -19 -29 -16 -3 4 -6 0 -6
-7 0 -7 -3 -11 -6 -7 -4 3 -12 1 -19 -6 -32 -30 -54 -45 -59 -40 -3 3 -8 -2
-12 -11 -3 -9 -10 -13 -15 -10 -5 3 -9 0 -9 -5 0 -6 -6 -11 -14 -11 -7 0 -19
-7 -26 -15 -7 -8 -16 -13 -20 -10 -4 3 -11 -2 -14 -11 -3 -8 -10 -12 -16 -9
-5 3 -10 1 -10 -4 0 -6 -3 -10 -7 -10 -19 3 -36 -2 -30 -8 10 -9 -73 -44 -86
-36 -5 3 -7 2 -4 -3 3 -6 -9 -16 -26 -23 -18 -7 -39 -16 -47 -20 -11 -6 -21 7
-42 57 -15 36 -25 69 -21 75 3 6 1 7 -5 3 -7 -4 -12 -4 -13 1 0 4 -2 16 -5 26
-2 9 -5 23 -7 30 -2 6 -9 23 -17 37 -7 14 -13 27 -13 30 1 9 -8 34 -18 54 -8
14 -8 16 3 10 10 -6 10 -4 -1 9 -7 9 -11 24 -7 32 3 9 2 13 -4 10 -6 -4 -10 7
-10 24 0 16 -5 33 -10 36 -6 4 -8 11 -4 16 3 5 0 17 -8 26 -11 14 -11 16 2 8
12 -6 13 -5 3 6 -7 7 -13 23 -13 36 0 13 -5 23 -11 23 -8 0 -8 4 0 14 8 9 8
16 2 20 -5 4 -8 15 -6 26 2 11 0 20 -5 20 -5 0 -7 7 -4 15 4 8 3 23 -1 33 -4
9 -8 28 -9 42 0 14 -5 31 -10 39 -7 11 -6 12 5 6 12 -8 12 -6 0 8 -9 12 -10
17 -2 17 7 0 9 5 4 13 -9 13 -12 447 -3 447 3 0 6 17 7 38 1 20 4 47 8 60 5
15 3 22 -6 22 -12 0 -11 2 0 9 8 5 15 26 15 49 1 22 4 38 9 35 6 -3 12 45 8
70 0 4 3 7 8 7 4 0 8 8 8 18 -1 29 15 92 24 98 5 3 7 9 4 14 -3 5 0 20 7 32 6
13 11 31 9 41 -1 9 3 17 9 17 6 0 10 6 9 13 -4 22 13 67 25 67 6 0 4 5 -4 10
-9 6 -10 10 -3 10 10 0 26 30 28 52 0 3 3 10 8 14 4 4 7 16 7 26 0 10 5 18 11
18 6 0 9 7 5 15 -3 8 -1 15 4 15 6 0 10 7 10 15 0 8 4 15 10 15 5 0 10 3 9 8
-2 16 14 52 24 52 6 0 7 3 4 7 -4 3 1 15 10 26 12 13 13 17 4 12 -8 -5 -5 6 8
23 12 18 19 32 14 32 -4 0 0 5 10 11 9 5 17 16 17 23 0 8 7 19 15 26 8 7 15
21 15 32 0 10 4 17 8 14 5 -3 19 15 31 39 12 25 27 45 32 45 5 0 9 9 9 21 0
11 4 18 9 15 8 -5 16 5 20 26 3 14 46 54 53 51 4 -2 5 3 2 11 -3 9 5 21 21 32
17 11 24 23 20 33 -3 8 -3 13 0 9 9 -9 45 23 45 39 0 7 7 13 15 13 8 0 15 4
15 9 0 5 18 27 40 49 22 22 40 38 40 35 0 -2 15 13 32 34 40 47 49 53 62 46 5
-3 7 -2 4 3 -7 11 17 35 26 27 3 -4 6 9 6 27 0 18 -3 31 -6 28 -3 -4 -43 32
-90 80 -88 90 -109 103 -119 71z"/>
<path d="M3076 163 c-3 -3 -62 -6 -131 -5 -69 0 -125 -3 -126 -6 0 -4 -2 -15
-4 -24 -2 -10 2 -18 8 -18 8 0 8 -3 2 -8 -15 -11 -17 -32 -2 -32 9 0 9 -2 -1
-9 -8 -4 -14 -12 -14 -16 0 -4 6 -12 14 -16 10 -7 10 -9 0 -9 -7 0 -10 -5 -7
-10 4 -7 298 -10 848 -10 l843 0 -1 75 c-1 41 -4 77 -7 81 -4 3 -33 5 -65 4
-135 -4 -242 -2 -251 4 -6 3 -13 3 -15 -1 -3 -5 -29 -7 -59 -5 -29 1 -60 2
-68 2 -115 -2 -213 0 -220 5 -6 3 -10 3 -10 -2 0 -4 -26 -7 -57 -6 -70 3 -157
3 -198 0 -16 -2 -38 1 -47 6 -10 4 -18 4 -18 0 0 -4 -26 -7 -57 -6 -64 3 -142
3 -248 0 -38 -2 -77 1 -86 5 -9 4 -19 5 -23 1z"/>
</g>
</svg>
